<svg xmlns="http://www.w3.org/2000/svg" xmlns:xlink="http://www.w3.org/1999/xlink" width="106.667" height="106.667"><defs><radialGradient xlink:href="#a" id="b" cx="-1380.014" cy="14.258" fx="-1380.014" fy="14.258" r="286.189" gradientTransform="matrix(-.0124 1.41624 -1.50853 -.01321 -604.363 2011.032)" gradientUnits="userSpaceOnUse"/><linearGradient id="a"><stop offset="0" stop-color="#666"/><stop offset="1" stop-color="#666" stop-opacity="0"/></linearGradient><filter id="c" x="-.012" width="1.024" y="-.012" height="1.024" color-interpolation-filters="sRGB"><feGaussianBlur stdDeviation="2.86"/></filter></defs><path d="M-853.53 340.161c-11.298-4.008-26.824-17.474-33.734-29.256l-7.657-13.057-.02-240c-.01-132 .965-243.513 2.166-247.805 3.03-10.83 18.021-27.17 31.003-33.792 10.507-5.36 18.95-5.546 252.064-5.546 265.073 0 252.019-.855 269.406 17.633 17.736 18.86 16.698 4.734 17.607 239.51.46 118.642-.303 230.206-1.695 247.92-2.317 29.504-3.24 33.099-11 42.857-4.66 5.858-14.134 13.544-21.054 17.08l-12.583 6.428-240.109-.225c-132.06-.124-242.037-.91-244.395-1.747z" transform="matrix(.17111 0 0 .17232 160.682 46.533)" opacity=".93" fill="url(#b)" filter="url(#c)"/><path d="M8.802 99.848c-1.933-.69-4.59-3.01-5.772-5.041l-1.31-2.25L1.715 51.2c-.002-22.746.165-41.962.37-42.702.52-1.866 3.084-4.681 5.306-5.823 1.798-.923 3.242-.955 43.131-.955 45.357 0 43.124-.148 46.099 3.038 3.035 3.25 2.857.816 3.013 41.272.078 20.445-.052 39.67-.29 42.722-.397 5.084-.555 5.704-1.883 7.385-.797 1.01-2.418 2.334-3.602 2.943l-2.153 1.108-41.086-.038c-22.597-.02-41.416-.157-41.82-.3z" fill="#5d4037"/><g stroke-width=".801"><path d="M363.92 374.18L89.41 415.64C35.915 412.22-2.857 344.05.843 332.09l267.08-35.68 95.993 77.772z" fill="#f57c00" stroke="#5d4037" stroke-width="5.391" transform="matrix(.1237 0 0 .13823 30.362 -24.66)"/><path d="M372.86 372.36l-1.43 415.72L90 836.65c-49.431-13.24-84.126-35.08-86.979-75.49l-4.475-428.7c6.613 29.82 51.52 83.29 91.454 82.76l282.86-42.857z" fill="#f57c00" stroke="#fff" stroke-width="10.745" transform="matrix(.1237 0 0 .13823 30.362 -24.66)"/><path d="M-.724 332.261l280.71-44.584 2.143 17.832-11.43-8.916-270.84 41.3-.587-5.637z" fill="#fff" stroke="#fff" stroke-width="2.444" transform="matrix(.1237 0 0 .13823 30.362 -24.66)"/><path d="M90 416.65l-.714 420.71" fill="none" stroke="#fff" stroke-width="9.98" transform="matrix(.1237 0 0 .13823 30.362 -24.66)"/></g></svg>