<svg xmlns="http://www.w3.org/2000/svg" xmlns:xlink="http://www.w3.org/1999/xlink" width="106.667" height="106.667"><defs><linearGradient id="d"><stop offset="0" stop-color="gray"/><stop offset="1" stop-color="gray" stop-opacity="0"/></linearGradient><linearGradient id="a"><stop offset="0" stop-color="#fff" stop-opacity="0"/><stop offset="1" stop-color="#fff"/></linearGradient><linearGradient id="c"><stop offset="0" stop-color="#00b400"/><stop offset="1" stop-color="#00b400" stop-opacity="0"/></linearGradient><linearGradient id="b"><stop offset="0" stop-color="#001c00"/><stop offset="1" stop-color="#001c00" stop-opacity="0"/></linearGradient><radialGradient xlink:href="#d" id="e" cx="1332.707" cy="-116.077" fx="1332.707" fy="-116.077" r="286.189" gradientTransform="matrix(-.05893 1.86521 -2.0165 -.0637 850.082 -2500.946)" gradientUnits="userSpaceOnUse"/><filter id="f" x="-.036" width="1.072" y="-.036" height="1.072" color-interpolation-filters="sRGB"><feGaussianBlur stdDeviation="8.579"/></filter></defs><path transform="matrix(.1739 0 0 .17406 -121.54 54.686)" d="M760.842 275.974c-11.297-4.009-26.824-17.475-33.733-29.257l-7.657-13.057-.02-240c-.01-132 .965-243.512 2.166-247.805 3.03-10.83 18.021-27.17 31.003-33.792 10.507-5.36 18.95-5.546 252.064-5.546 265.073 0 252.018-.854 269.406 17.634 17.736 18.859 16.698 4.733 17.607 239.509.459 118.643-.303 230.207-1.695 247.92-2.317 29.505-3.24 33.1-11 42.857-4.66 5.858-14.134 13.544-21.054 17.08l-12.583 6.429-240.109-.226c-132.06-.124-242.038-.91-244.395-1.746z" opacity=".884" fill="url(#e)" filter="url(#f)"/><path d="M7.7 97.584c-1.934-.677-4.591-2.95-5.773-4.94L.616 90.44.613 49.918C.61 27.631.778 8.804.983 8.078 1.502 6.25 4.067 3.493 6.29 2.374c1.798-.905 3.243-.936 43.138-.936 45.365 0 43.13-.144 46.106 2.977 3.036 3.184 2.858.8 3.014 40.439.078 20.031-.052 38.868-.29 41.859-.397 4.981-.555 5.588-1.883 7.235-.797.99-2.419 2.287-3.603 2.884l-2.154 1.086-41.092-.038c-22.6-.021-41.422-.154-41.825-.295z" fill="#5d4037"/><path d="M10.341 988.654l29.819-.1" fill="#ff0" stroke="#f57c00" stroke-width="4.518" stroke-linecap="round" transform="matrix(.89866 0 0 .89866 3.37 -858.282)"/><path d="M-614.474 9.599h37.171s38.691-206.028 151.645-208.553C-312.704-201.478-262.17 9.6-262.17 9.6h38.487" fill="none" stroke-width="60" stroke-linecap="round" transform="matrix(.06744 0 0 .06791 54.322 23.1)" stroke="#fff"/><path d="M10.341 988.654l29.819-.1" fill="#f57c00" stroke="#f57c00" stroke-width="4.518" stroke-linecap="round" transform="matrix(.89866 0 0 .89866 52.705 -831.816)"/><path d="M-614.474 9.599h37.171s38.691-206.028 151.645-208.553C-312.704-201.478-262.17 9.6-262.17 9.6h38.487" fill="none" stroke-width="60" stroke-linecap="round" transform="matrix(.06744 0 0 .06791 103.658 49.567)" stroke="#fff"/><g><path d="M10.341 988.654l29.819-.1" fill="#f57c00" stroke="#f57c00" stroke-width="4.518" stroke-linecap="round" transform="matrix(.89866 0 0 .89866 24.928 -800.387)"/><path d="M-614.474 9.599h37.171s38.691-206.028 151.645-208.553C-312.704-201.478-262.17 9.6-262.17 9.6h38.487" fill="none" stroke-width="60" stroke-linecap="round" transform="matrix(.06744 0 0 .06791 75.88 80.996)" stroke="#fff"/></g><path d="M1501.873 713.928s68.646-41.013 106.847-50.14c54.59-13.043 129.578-22.261 168.185-5.014 38.606 17.246 47.178 37.74 55.402 65.182 7.917 26.42 3.002 95.458-14.84 116.324-23.495 27.478-75.249 28.657-99.934 11.412-37.458-26.166-82.397-37.967-147.397-35.479-18.518.71-49.828 15.44-75.188 31.087-14.607 9.013-33.637 36.1-32.648 40.112.99 4.011-3.147 88.965 9.894 103.289 23.586 25.906 20.742 18.782 60.348 34.095 35.807 13.844 110.804 31.087 110.804 31.087v0" fill="none" stroke="#059865" stroke-width="23.717" stroke-dasharray="23.71669195,23.716691950000001" transform="matrix(.16044 0 0 .15829 -215.728 -89.83)"/></svg>