<svg xmlns="http://www.w3.org/2000/svg" xmlns:xlink="http://www.w3.org/1999/xlink" width="100" height="100"><defs><radialGradient xlink:href="#a" id="b" cx="-1380.014" cy="14.258" fx="-1380.014" fy="14.258" r="286.189" gradientTransform="matrix(-.0124 1.41624 -1.50853 -.01321 -604.363 2011.032)" gradientUnits="userSpaceOnUse"/><linearGradient id="a"><stop offset="0" stop-color="#666"/><stop offset="1" stop-color="#666" stop-opacity="0"/></linearGradient><filter id="c" x="-.012" width="1.024" y="-.012" height="1.024" color-interpolation-filters="sRGB"><feGaussianBlur stdDeviation="2.86"/></filter></defs><path d="M-853.53 340.161c-11.298-4.008-26.824-17.474-33.734-29.256l-7.657-13.057-.02-240c-.01-132 .965-243.513 2.166-247.805 3.03-10.83 18.021-27.17 31.003-33.792 10.507-5.36 18.95-5.546 252.064-5.546 265.073 0 252.019-.855 269.406 17.633 17.736 18.86 16.698 4.734 17.607 239.51.46 118.642-.303 230.206-1.695 247.92-2.317 29.504-3.24 33.099-11 42.857-4.66 5.858-14.134 13.544-21.054 17.08l-12.583 6.428-240.109-.225c-132.06-.124-242.037-.91-244.395-1.747z" transform="matrix(.16042 0 0 .16155 150.64 43.625)" opacity=".93" fill="url(#b)" filter="url(#c)"/><path d="M8.252 93.608c-1.812-.648-4.303-2.823-5.412-4.726l-1.228-2.11L1.609 48c-.002-21.324.155-39.34.347-40.033.486-1.75 2.891-4.389 4.974-5.459 1.685-.866 3.04-.896 40.435-.896 42.523 0 40.429-.138 43.218 2.849 2.845 3.047 2.679.765 2.824 38.693.074 19.166-.048 37.19-.271 40.051-.372 4.767-.52 5.347-1.765 6.924-.748.946-2.267 2.188-3.378 2.759l-2.018 1.038-38.518-.036c-21.185-.02-38.827-.147-39.205-.282z" fill="#5d4037"/><path d="M13.263 76.408l67.841-.227" fill="#f57c00" stroke="#f57c00" stroke-width="10.279037339999999" stroke-linecap="round"/><path d="M-614.474 9.599h37.171s38.691-206.028 151.645-208.553C-312.704-201.478-262.17 9.6-262.17 9.6h38.487" fill="none" stroke-width="60" stroke-linecap="round" transform="matrix(.17073 0 0 .17193 118.731 52.474)" stroke="#fff"/></svg>