<svg xmlns="http://www.w3.org/2000/svg" xmlns:xlink="http://www.w3.org/1999/xlink" width="100" height="100"><defs><linearGradient id="a"><stop offset="0" stop-color="#fff" stop-opacity="0"/><stop offset="1" stop-color="#fff"/></linearGradient><linearGradient id="b"><stop offset="0" stop-color="#66e11c"/><stop offset="1" stop-color="#3d9800"/></linearGradient><linearGradient id="c"><stop offset="0" stop-color="#fff"/><stop offset="1" stop-color="#fff" stop-opacity="0"/></linearGradient><linearGradient id="d"><stop offset="0" stop-color="#fff" stop-opacity=".727"/><stop offset="1" stop-color="#fff"/></linearGradient><linearGradient id="e"><stop offset="0" stop-color="#66e11c"/><stop offset="1" stop-color="#3d9800"/></linearGradient><linearGradient id="f"><stop offset="0" stop-color="#fff"/><stop offset="1" stop-color="#fff" stop-opacity="0"/></linearGradient><linearGradient id="g"><stop offset="0" stop-color="#fff" stop-opacity=".727"/><stop offset="1" stop-color="#fff"/></linearGradient><linearGradient id="h"><stop offset="0" stop-color="gray"/><stop offset="1" stop-color="gray" stop-opacity="0"/></linearGradient><radialGradient xlink:href="#h" id="i" cx="1332.707" cy="-116.077" fx="1332.707" fy="-116.077" r="286.189" gradientTransform="matrix(-.05893 1.86521 -2.0165 -.0637 850.082 -2500.946)" gradientUnits="userSpaceOnUse"/><filter id="j" x="-.036" width="1.072" y="-.036" height="1.072" color-interpolation-filters="sRGB"><feGaussianBlur stdDeviation="8.579"/></filter></defs><path d="M760.842 275.974c-11.297-4.009-26.824-17.475-33.733-29.257l-7.657-13.057-.02-240c-.01-132 .965-243.512 2.166-247.805 3.03-10.83 18.021-27.17 31.003-33.792 10.507-5.36 18.95-5.546 252.064-5.546 265.073 0 252.018-.854 269.406 17.634 17.736 18.859 16.698 4.733 17.607 239.509.459 118.643-.303 230.207-1.695 247.92-2.317 29.505-3.24 33.1-11 42.857-4.66 5.858-14.134 13.544-21.054 17.08l-12.583 6.429-240.109-.226c-132.06-.124-242.038-.91-244.395-1.746z" transform="matrix(.15229 0 0 .15395 -99.871 54.051)" opacity=".884" fill="url(#i)" filter="url(#j)"/><path d="M8.118 92.425c-1.781-.64-4.23-2.787-5.319-4.667l-1.207-2.083-.003-38.285c-.002-21.057.152-38.845.341-39.53.478-1.728 2.842-4.334 4.889-5.39 1.656-.856 2.988-.885 39.746-.885 41.798 0 39.739-.136 42.48 2.813 2.797 3.008 2.634.755 2.777 38.207.072 18.926-.048 36.722-.267 39.548-.366 4.707-.511 5.28-1.735 6.837-.734.934-2.228 2.16-3.32 2.724l-1.984 1.026-37.86-.036c-20.825-.02-38.166-.145-38.538-.279z" fill="#5d4037"/><path d="M75.73 83.14l10.135-6.646-9.993-6.91-.035 3.389-1.16-.008-.445-.003-13.821-.1.035-3.388L50.31 76.24l9.995 6.79.035-3.387 13.822.099.444.003 1.16.008-.035 3.388z" fill="#fff" fill-rule="evenodd"/><path d="M22.124 30c-.38-.4-.924-1.018-1.208-1.372l-1.486-1.847c-.991-1.231-1.197-2.152-.638-2.85.173-.217.955-.921 1.736-1.566.782-.644 1.48-1.233 1.551-1.307.071-.075 1.002-.835 2.068-1.69s1.996-1.625 2.067-1.712c.071-.087.591-.505 1.155-.929.564-.423 1.213-.947 1.442-1.162.608-.574 1.54-1.334 2.707-2.212.566-.425 1.07-.874 1.12-.997.15-.367 1.362-.738 1.873-.574.26.084 1.35 1.208 2.421 2.5 2.747 3.31 2.73 3.39-1.498 6.773-.27.216-.622.51-.784.654-.162.144-1.167.961-2.233 1.817-1.066.855-1.996 1.626-2.067 1.713-.156.19-3.388 2.835-5.352 4.38-.777.61-1.587 1.11-1.798 1.11-.212 0-.696-.327-1.076-.728zM45.598 15.395c0-2.123.85-4.283 2.166-5.503 1.788-1.657 2.787-2.04 5.31-2.038 1.966.002 2.337.082 3.29.707 1.877 1.23 3.45 3.12 3.45 4.144 0 .139-1.36.245-3.127.245-3.654 0-4.198.241-5.144 2.284-.317.685-.709 1.332-.87 1.438-.161.105-1.37.194-2.684.196l-2.39.004v-1.477z" fill="#fff"/><path d="M51.672 21.07c-.999-.239-1.878-.721-2.671-1.465l-.634-.594 1.443-.183c1.719-.217 2.653-.962 3.52-2.806l.585-1.242h5.04l-.17 1.111c-.528 3.417-3.977 5.928-7.113 5.179z" fill="#fff" stroke="#fff" stroke-width=".159"/><path d="M73.836 24.249c-12.133-12.006-11.438-11.27-11.438-12.111 0-.597.16-.833.71-1.053 1.055-.42 21.887-.152 22.411.288 1.267 1.064 1.947 4.793 1.495 8.205-.161 1.223-.4 2.438-.529 2.7l-1.369 2.773c-1.41 2.855-3.72 5.455-4.804 5.408-.116-.005-3.03-2.8-6.476-6.21z" fill="#f57c00"/><path d="M38.933 76.366c-1.093-.61-1.835-1.508-2.238-2.705-.324-.96-.401-2.562-.401-8.288v-7.098l-3.997-4.03c-2.198-2.217-4.101-4.066-4.228-4.108-.128-.043-.368.544-.534 1.304-.166.76-.53 2.441-.807 3.735-1.156 5.39-1.329 6.039-1.836 6.909-.292.5-1.992 2.328-3.777 4.06A1055.564 1055.564 0 0015 72.137c-3.477 3.441-4.042 3.823-5.658 3.825-2.691.002-4.55-2.477-3.848-5.132.336-1.273.7-1.67 8.084-8.819 3.346-3.24 4.06-4.065 4.303-4.968.296-1.107.952-3.955 1.875-8.142.285-1.294.628-2.765.762-3.268.517-1.945 1.304-5.393 1.304-5.712 0-.184.276-.945.614-1.691.642-1.415 1.787-2.6 5.085-5.265 1.059-.855 1.983-1.62 2.054-1.7.071-.08.999-.85 2.062-1.713 2.612-2.12 3.126-2.548 3.612-3.006.23-.216.878-.739 1.442-1.163.564-.424 1.088-.86 1.164-.97.076-.11.715-.463 1.421-.784 2.737-1.245 6.105-.598 8.301 1.593 1.233 1.231 1.694 2.286 3.837 8.797l1.81 5.495 2.527 1.948c1.39 1.072 2.81 2.184 3.152 2.471.343.288 1.193.935 1.889 1.438 1.676 1.213 2.153 1.898 2.17 3.117.025 1.85-1.411 3.42-3.128 3.42-.773 0-2.347-.823-3.174-1.66-.217-.22-1.029-.848-1.804-1.398a54.942 54.942 0 01-2.426-1.828 137.91 137.91 0 00-2.662-2.09c-2.002-1.533-2.385-2.185-3.77-6.424-.412-1.258-.873-2.286-1.026-2.284-.152.002-.641.326-1.087.72a89.09 89.09 0 01-3.584 2.985c-.982.765-1.91 1.54-2.443 2.043-.23.216-.874.741-1.433 1.168-2.16 1.647-2.428 1.063 3.006 6.553 3.662 3.7 4.905 5.12 5.015 5.724.08.443.11 4.864.068 9.826l-.078 9.02-.757.854c-1.366 1.54-3.307 2.052-4.745 1.249z" fill="#fff"/></svg>