<svg xmlns="http://www.w3.org/2000/svg" xmlns:xlink="http://www.w3.org/1999/xlink" width="100" height="100"><defs><linearGradient id="b"><stop offset="0" stop-color="#00b400"/><stop offset="1" stop-color="#00b400" stop-opacity="0"/></linearGradient><linearGradient id="a"><stop offset="0" stop-color="#001c00"/><stop offset="1" stop-color="#001c00" stop-opacity="0"/></linearGradient><linearGradient id="d"><stop offset="0" stop-color="#00b400"/><stop offset="1" stop-color="#00b400" stop-opacity="0"/></linearGradient><linearGradient id="e"><stop offset="0" stop-color="#00b400"/><stop offset="1" stop-color="#00b400" stop-opacity="0"/></linearGradient><linearGradient id="c"><stop offset="0" stop-color="#001c00"/><stop offset="1" stop-color="#001c00" stop-opacity="0"/></linearGradient><linearGradient id="f"><stop offset="0" stop-color="gray"/><stop offset="1" stop-color="gray" stop-opacity="0"/></linearGradient><radialGradient xlink:href="#f" id="g" cx="1332.707" cy="-116.077" fx="1332.707" fy="-116.077" r="286.189" gradientTransform="matrix(-.05893 1.86521 -2.0165 -.0637 850.082 -2500.946)" gradientUnits="userSpaceOnUse"/><filter id="h" x="-.036" width="1.072" y="-.036" height="1.072" color-interpolation-filters="sRGB"><feGaussianBlur stdDeviation="8.579"/></filter></defs><path d="M760.842 275.974c-11.297-4.009-26.824-17.475-33.733-29.257l-7.657-13.057-.02-240c-.01-132 .965-243.512 2.166-247.805 3.03-10.83 18.021-27.17 31.003-33.792 10.507-5.36 18.95-5.546 252.064-5.546 265.073 0 252.018-.854 269.406 17.634 17.736 18.859 16.698 4.733 17.607 239.509.459 118.643-.303 230.207-1.695 247.92-2.317 29.505-3.24 33.1-11 42.857-4.66 5.858-14.134 13.544-21.054 17.08l-12.583 6.429-240.109-.226c-132.06-.124-242.038-.91-244.395-1.746z" transform="matrix(.15434 0 0 .1537 -102.555 54.108)" opacity=".884" fill="url(#g)" filter="url(#h)"/><path d="M8.21 92.292c-1.806-.639-4.287-2.783-5.391-4.66l-1.224-2.08-.003-38.221c-.002-21.023.154-38.782.346-39.466.484-1.725 2.88-4.327 4.955-5.382C8.572 1.63 9.92 1.6 47.176 1.6c42.363 0 40.277-.136 43.056 2.808 2.834 3.004 2.668.754 2.813 38.145.074 18.895-.048 36.662-.27 39.484-.37 4.698-.518 5.27-1.759 6.825-.744.933-2.258 2.157-3.364 2.72l-2.011 1.024-38.373-.036c-21.105-.02-38.681-.145-39.058-.278z" fill="#5d4037"/><path d="M36 24.124c-1.241-.137-2.611-.669-3.683-1.43-1.026-.728-1.008-.747 1.12-1.186 2.233-.462 2.943-1.118 3.784-3.5l.649-1.836 3.279-.5c3.776-.578 3.627-.628 3.56 1.199-.09 2.45-1.213 4.443-3.303 5.856-1.154.78-1.547.942-2.908 1.2-.894.17-1.972.255-2.497.197zm-8.01-4.004c-.448-.559-.838-3.177-.668-4.48.536-4.105 3.737-7.28 7.994-7.928 2.84-.433 5.32.148 7.474 1.75 1.13.84 2.69 2.634 2.788 3.204.064.38-.493.52-4.505 1.133-4.837.74-4.787.712-5.519 3.025-.807 2.55-.8 2.545-4.31 3.153-2.88.499-2.965.503-3.254.143z" fill="#fff"/><path d="M15.894 85.109c1.247-.906 2.978-3.582 8.112-12.543 2.441-4.261 3.338-6.345 3.79-8.808.327-1.775.732-3.489.9-3.809.195-.37 1.52.753 3.65 3.095 1.838 2.022 3.505 3.947 3.703 4.277.198.33.987 3.845 1.754 7.81 1.613 8.351 2.325 9.885 5.021 10.83 1.742.61 2.09.588 3.771-.238 1.336-.657 2.039-1.41 2.521-2.7.613-1.637.538-2.5-.892-10.236-.86-4.646-1.798-8.918-2.087-9.494-.288-.576-2.913-3.905-5.832-7.399l-5.309-6.352 1.073-4.504c1.046-4.392 1.089-4.47 1.714-3.167.796 1.66 10.475 8.411 12.538 8.746 2.243.365 4.085-1.285 4.085-3.658 0-1.588-.274-2.06-2.02-3.472-1.11-.9-3.27-2.458-4.798-3.463-2.656-1.747-2.921-2.112-6.013-8.277-1.778-3.546-3.888-7.069-4.686-7.827-3.738-2.405-4.795-2.05-7.445-1.518-.642.162-4.365 2.874-8.274 6.028-5.302 4.278-7.23 6.12-7.591 7.253-.776 2.433-2.897 12.259-2.897 13.421 0 1.8 1.758 3.571 3.546 3.571 2.82 0 3.557-1.11 5.043-7.602 1.16-5.068 2.038-7.145 2.728-6.453.097.097-1.136 6-2.74 13.117l-2.915 12.941-4.257 7.238C8.655 77.75 7.83 79.52 7.83 81.044c0 4.41 4.48 6.667 8.064 4.065z" fill="#fff"/><path d="M2319.43 726.996c-3.004.406-4.69.988-6.994 2.415-1.19.738-2.89 2.045-2.89 2.222 0 .147 2.368 2.591 2.51 2.591.039 0 .337-.215.664-.479 1.252-1.01 2.92-2.003 3.974-2.366.745-.257 2.161-.509 3.52-.626 3.013-.26 6.138.45 8.422 1.913 2.342 1.5 4.445 4.123 5.55 6.922.87 2.2 1.09 5.131.575 7.659-1.19 5.848-6.534 10.41-12.68 10.824-2.382.161-5.399-.563-7.599-1.823-1.033-.593-1.808-1.207-2.853-2.262-2.365-2.388-3.755-5.25-3.917-8.062l-.055-.953 2.378-.024c1.593-.016 2.387-.055 2.409-.12.017-.052-1.4-1.55-3.149-3.329l-3.18-3.234-.966.904c-1.892 1.771-5.643 5.602-5.582 5.7.042.069.718.1 2.177.1h2.116l.057.51c.566 5.05 2.686 9.355 5.954 12.094 3.398 2.848 7.177 4.269 11.342 4.264 2.863-.004 5.196-.527 7.72-1.733 1.869-.892 3.193-1.81 4.668-3.235 2.472-2.39 4.106-5.475 4.843-9.148.638-3.175.487-5.799-.505-8.79-.393-1.183-1.36-3.183-2.04-4.218-2.156-3.275-5.304-5.675-9.078-6.918-1.958-.646-2.819-.782-5.131-.81-1.097-.013-2.115-.008-2.26.012zm4.063.258c4.983.654 9.355 3.354 12.152 7.503 1.17 1.736 2.277 4.442 2.727 6.666.174.863.204 1.271.199 2.745 0 1.212-.053 1.998-.16 2.62-.543 3.16-1.632 5.791-3.343 8.085-.76 1.018-2.547 2.751-3.611 3.501-2.829 1.995-6.13 3.111-9.634 3.257-2.763.116-5.307-.442-7.978-1.748-3.75-1.834-6.45-4.592-8.06-8.233-.783-1.773-1.482-4.382-1.614-6.028-.031-.384-.096-.749-.144-.81-.065-.083-.594-.11-2.093-.11h-2.005l3.057-3.064 3.057-3.063 2.993 2.996c1.645 1.648 2.992 3.026 2.992 3.063 0 .037-.967.068-2.15.069-1.182 0-2.205.036-2.272.079-.207.13-.081 2.165.197 3.204.92 3.438 3.467 6.693 6.661 8.516 3.292 1.879 7.546 2.303 11.151 1.112 5.167-1.707 8.943-6.25 9.554-11.497.127-1.088.059-3.242-.137-4.37-.711-4.083-3.916-8.299-7.61-10.007-1.911-.884-3.467-1.195-5.998-1.197-3.847-.003-5.756.635-8.715 2.913l-.693.533-1.156-1.158-1.156-1.157.74-.578c2.997-2.336 5.782-3.542 8.95-3.874 1.2-.125 3.007-.111 4.1.032zm-.113 13.194c-1.814 1.567-3.319 2.904-3.344 2.971-.081.212.528 11.675.63 11.84.032.053.277.097.544.097.42 0 .494-.027.563-.2.07-.176.168-1.814.55-9.079.054-1.025.123-1.91.154-1.964.03-.055 1.132-1.294 2.448-2.754a302.516 302.516 0 002.515-2.807c.107-.135.084-.203-.177-.551-.164-.219-.363-.399-.442-.4-.08-.002-1.628 1.28-3.441 2.847zm3.708-2.3l.21.24-2.383 2.633c-1.31 1.448-2.451 2.722-2.535 2.831-.165.216-.173.323-.511 6.665-.096 1.807-.2 3.575-.23 3.929l-.053.644h-.76l-.056-.777a266.97 266.97 0 01-.192-3.485c-.075-1.49-.193-3.746-.262-5.015l-.126-2.306.284-.239a941.79 941.79 0 003.298-2.853c1.658-1.438 3.035-2.59 3.06-2.56l.255.294z" fill="#fff" stroke="#fff" stroke-width="2.027" transform="matrix(.94674 0 0 .9419 -2126.152 -633.78)"/><path d="M2318.924 760.352c-3.216-.621-6.593-2.412-8.89-4.712-2.442-2.447-3.68-4.99-4.523-9.294l-.505-2.579-1.066-.143-1.065-.144 1.587-1.566 1.587-1.566 1.587 1.566 1.587 1.566-1.373.144c-1.346.14-1.373.163-1.46 1.206-.44 5.313 4.139 11.701 9.831 13.718 2.136.756 6.015 1.023 8.214.566 5.366-1.117 10.102-5.67 11.504-11.06 1.559-5.995-1.082-12.851-6.281-16.308-4.844-3.22-12.092-3.15-16.782.161-.615.435-.812.464-1.067.156-.244-.294.08-.61 1.47-1.437 2.632-1.565 5.013-2.218 8.077-2.214 6.264.008 11.586 3.374 14.311 9.05 1.655 3.448 1.98 5.181 1.586 8.435-.815 6.714-4.792 11.647-11.087 13.75-1.735.58-5.828.979-7.242.705z" fill="#fff" stroke="#fff" stroke-width="3.436" stroke-linecap="round" transform="matrix(.94674 0 0 .9419 -2126.152 -633.78)"/><path d="M77.493 46.414c-.386-.222-3.421-3.41-6.745-7.085C52.576 19.236 50.165 16.507 50.022 15.87c-.083-.372-.024-1.022.132-1.444.586-1.584.03-1.538 18.561-1.538h16.946l.807.794c.917.901 1.633 2.59 2.214 5.222.548 2.482.547 8.273-.003 10.897-1.053 5.033-3.924 11.175-6.76 14.463-1.878 2.179-3.23 2.836-4.426 2.15z" fill="#f57c00"/></svg>