<?xml version="1.0" encoding="UTF-8" standalone="no"?>
<!-- Created with Inkscape (http://www.inkscape.org/) -->

<svg
   xmlns:dc="http://purl.org/dc/elements/1.1/"
   xmlns:cc="http://creativecommons.org/ns#"
   xmlns:rdf="http://www.w3.org/1999/02/22-rdf-syntax-ns#"
   xmlns:svg="http://www.w3.org/2000/svg"
   xmlns="http://www.w3.org/2000/svg"
   xmlns:xlink="http://www.w3.org/1999/xlink"
   xmlns:sodipodi="http://sodipodi.sourceforge.net/DTD/sodipodi-0.dtd"
   xmlns:inkscape="http://www.inkscape.org/namespaces/inkscape"
   width="106.12999"
   height="105.47921"
   id="svg3052"
   version="1.1"
   inkscape:version="0.92.4 (5da689c313, 2019-01-14)"
   sodipodi:docname="caver.svg"
   inkscape:export-filename="C:\Users\urien\Desktop\caver2.png"
   inkscape:export-xdpi="200.06245"
   inkscape:export-ydpi="200.06245">
  <defs
     id="defs3054">
    <radialGradient
       inkscape:collect="always"
       xlink:href="#linearGradient4853"
       id="radialGradient4859"
       cx="-1380.014"
       cy="14.257986"
       fx="-1380.014"
       fy="14.257986"
       r="286.18933"
       gradientTransform="matrix(-0.01240631,1.4162376,-1.5085276,-0.01321477,-604.36314,2011.0321)"
       gradientUnits="userSpaceOnUse" />
    <linearGradient
       inkscape:collect="always"
       id="linearGradient4853">
      <stop
         style="stop-color:#666666;stop-opacity:1;"
         offset="0"
         id="stop4855" />
      <stop
         style="stop-color:#666666;stop-opacity:0;"
         offset="1"
         id="stop4857" />
    </linearGradient>
    <filter
       inkscape:collect="always"
       style="color-interpolation-filters:sRGB"
       id="filter4885"
       x="-0.011990105"
       width="1.0239801"
       y="-0.012009912"
       height="1.0240198">
      <feGaussianBlur
         inkscape:collect="always"
         stdDeviation="2.8595334"
         id="feGaussianBlur4887" />
    </filter>
  </defs>
  <sodipodi:namedview
     id="base"
     pagecolor="#ffffff"
     bordercolor="#666666"
     borderopacity="1.0"
     inkscape:pageopacity="0.0"
     inkscape:pageshadow="2"
     inkscape:zoom="1.3504346"
     inkscape:cx="-77.67412"
     inkscape:cy="74.794911"
     inkscape:document-units="px"
     inkscape:current-layer="g6041"
     showgrid="false"
     inkscape:window-width="1920"
     inkscape:window-height="1009"
     inkscape:window-x="-8"
     inkscape:window-y="-8"
     inkscape:window-maximized="1"
     units="px"
     fit-margin-top="0"
     fit-margin-left="0"
     fit-margin-right="0"
     fit-margin-bottom="0" />
  <metadata
     id="metadata3057">
    <rdf:RDF>
      <cc:Work
         rdf:about="">
        <dc:format>image/svg+xml</dc:format>
        <dc:type
           rdf:resource="http://purl.org/dc/dcmitype/StillImage" />
        <dc:title></dc:title>
      </cc:Work>
    </rdf:RDF>
  </metadata>
  <g
     inkscape:label="Calque 1"
     inkscape:groupmode="layer"
     id="layer1"
     transform="translate(200.6904,-932.46295)">
    <g
       id="g4327"
       transform="translate(1006.3298,476.26239)"
       inkscape:export-filename="E:\Mes Documents\Dropbox\MaquetteGC\Test-Grottocenter3-Fred\img\icon\caver_flat32.png"
       inkscape:export-xdpi="4.8694196"
       inkscape:export-ydpi="4.8694196" />
    <path
       style="fill:#ffffff;fill-opacity:1;fill-rule:nonzero;stroke:#ffffff;stroke-width:57.1428566;stroke-miterlimit:4;stroke-dasharray:none;stroke-opacity:1"
       d=""
       id="path3876"
       inkscape:connector-curvature="0" />
    <g
       id="g6041"
       transform="matrix(0.14798527,0,0,0.1448416,-7.0133764,926.48848)">
      <path
         inkscape:export-ydpi="2.1303709"
         inkscape:export-xdpi="2.1303709"
         inkscape:export-filename="C:\Users\urien\speleo\Wikicaves\_icons\_bullet_entry.png"
         inkscape:connector-curvature="0"
         id="path3093-5"
         d="m -853.53064,340.16145 c -11.2971,-4.00843 -26.8238,-17.4746 -33.733,-29.25628 l -7.6575,-13.05766 -0.019,-239.999992 c -0.01,-132.000003 0.9638,-243.512148 2.1651,-247.804748 3.0309,-10.83038 18.0213,-27.16938 31.003,-33.79216 10.5068,-5.3602 18.9495,-5.54596 252.0645,-5.54596 265.0726,0 252.0181,-0.85447 269.4056,17.63382 17.736,18.85882 16.6976,4.73361 17.6066,239.509048 0.4594,118.642852 -0.303,230.206902 -1.6942,247.920132 -2.3172,29.50455 -3.2399,33.09923 -11.0008,42.85715 -4.6593,5.8582 -14.1336,13.54414 -21.0541,17.07985 l -12.5826,6.42857 -240.1089,-0.22542 c -132.0599,-0.1242 -242.0375,-0.91 -244.3947,-1.74635 z"
         style="opacity:0.93000034;fill:url(#radialGradient4859);fill-opacity:1;fill-rule:nonzero;stroke:none;stroke-width:20;stroke-miterlimit:4;stroke-dasharray:none;stroke-opacity:1;filter:url(#filter4885)"
         transform="matrix(1.1562822,0,0,1.1897123,-226.55607,354.2817)" />
      <path
         inkscape:connector-curvature="0"
         id="path3093"
         d="m -1261.3375,708.63455 c -12.9371,-4.69771 -30.7179,-20.47949 -38.63,-34.28711 l -8.7692,-15.30303 -0.022,-281.26977 c -0.012,-154.69837 1.1038,-285.385847 2.4794,-290.416587 3.4709,-12.69275 20.6374,-31.84136 35.5037,-39.60297 12.0321,-6.28193 21.7004,-6.49963 288.65655,-6.49963 303.55312,0 288.60352,-1.00141 308.51516,20.66608 20.31071,22.10174 19.12159,5.54759 20.16258,280.694387 0.52606,139.04438 -0.34702,269.79269 -1.94014,290.55184 -2.65365,34.57808 -3.71032,38.79089 -12.59784,50.22675 -5.33565,6.86556 -16.18537,15.87316 -24.11047,20.01686 l -14.40929,7.53401 -274.9654,-0.26418 c -151.23095,-0.14556 -277.17395,-1.06648 -279.87335,-2.04665 z"
         style="fill:#5d4037;fill-opacity:1;fill-rule:nonzero;stroke:#ffffff;stroke-width:0;stroke-miterlimit:4;stroke-dasharray:none;stroke-opacity:1" />
      <path
         sodipodi:nodetypes="sssssssscscssssssccccccsassssssssss"
         inkscape:connector-curvature="0"
         id="path4351-0-9"
         d="m -1016.1818,186.88639 c -16.0197,-2.18886 -39.9958,-0.94078 -52.8498,1.13567 -85.5818,13.82489 -127.7847,54.91551 -157.4497,117.04201 -14.5203,30.40947 -14.108,97.54057 -10.7597,111.40274 2.5381,10.50788 53.4884,-10.00293 112.0565,-25.58189 86.627,-23.04256 13.7468,-3.22896 91.7902,-24.58375 59.23425,-16.20808 59.66885,-16.61227 90.05375,-23.36145 18.2098,-4.04481 40.8794,-7.13618 53.6464,-13.62752 12.1311,-6.16799 14.6403,-7.19101 38.4801,-10.08538 -1.5132,-23.06711 -0.3844,-12.87458 -1.4118,-29.95493 -0.5239,-8.70827 -1.2964,-10.75778 -2.4837,-37.11582 -8.7755,-0.38308 -23.2606,0.90462 -30.8407,-0.19418 -8.9391,-1.29573 -9.0366,9.85073 -10.6658,9.63862 -1.6145,-0.21019 -3.3163,-3.02932 -5.5328,-6.37515 -4.9022,-7.39989 -10.9372,-14.96132 -15.6722,-19.19933 -34.6961,-31.05452 -62.2569,-44.20666 -98.36075,-49.13964 z m 127.01305,195.69344 c -9.691,1.818 -28.8573,7.75401 -58.5804,15.26637 l -72.12215,23.48178 12.024,40.91398 14.11225,37.34995 20.5858,42.57802 25.842,31.42559 c -9.4755,7.49804 -16.2543,17.76021 -21.4503,11.07815 -10.062,-12.9394 -17.1736,-21.65517 -24.3463,-33.54037 -10.01905,-16.60126 -4.9844,-4.90158 -25.88065,-52.38353 -2.4552,-5.57899 -20.7126,-58.34753 -31.0522,-69.8393 -2.8979,-3.2208 -19.6277,2.68998 -25.2034,4.26229 -43.9152,12.38356 -110.0705,32.52331 -128.8657,37.19506 -43.8773,10.9061 44.8597,87.41949 69.2676,100.47028 27.298,14.59619 51.3924,25.66383 77.0062,29.06129 10.8223,1.43552 41.1197,2.5387 59.55325,-1.66948 28.0661,-6.40715 34.9993,-9.2761 57.8588,-29.78905 42.0509,-37.7343 63.1627,-87.24451 65.0092,-148.05904 0.8602,-28.33763 3.9423,-41.12254 -13.758,-37.80199 z"
         style="fill:#f57c00;fill-opacity:1" />
      <path
         inkscape:export-ydpi="3.4936316"
         inkscape:export-xdpi="3.4936316"
         inkscape:export-filename="C:\Users\urien\Desktop\icones\icones\caver2_connected.png"
         style="fill:#ffff00"
         d="m -753.57755,131.59534 c -1.2546,1.09189 -12.2203,13.20967 -24.5595,30.3179 -61.8193,85.71145 -66.8569,91.20238 -67.3208,94.33888 -0.2712,1.83395 1.6367,48.5544 2.1444,50.63464 0.6847,9.4871 7.6035,8.34019 63.5283,21.45838 l 58.5477,13.73343 4.8216,-15.49638 c 1.5906,-5.11224 2.4621,-10.32901 3.6203,-23.88168 0.8148,-9.53537 1.7637,-26.31948 1.4248,-41.76193 -0.4265,-19.432 -2.5733,-39.16852 -3.5682,-46.37507 -3.4251,-24.80806 -15.0311,-56.16601 -24.2493,-72.37407 -6.1067,-10.73725 -10.5042,-13.975 -14.389,-10.5941 z"
         id="path4351-4"
         inkscape:connector-curvature="0"
         sodipodi:nodetypes="csscscssscscc" />
      <path
         style="opacity:1;fill:#ffffff;fill-opacity:1;fill-rule:evenodd;stroke:#ffffff;stroke-width:0;stroke-miterlimit:4;stroke-dasharray:none;stroke-dashoffset:0;stroke-opacity:1"
         d="m -1094.5006,587.51415 c -33.0617,-12.48279 -74.4714,-40.77419 -95.504,-65.24897 -16.5807,-19.29422 -27.7956,-40.60313 -23.6166,-44.87284 1.4292,-1.46022 38.2159,-13.10072 81.7481,-25.86779 91.3217,-26.78265 78.6216,-31.53404 108.4926,40.58934 10.3086,24.89006 26.60195,56.43125 36.20735,70.09154 12.3999,17.63438 15.7192,25.93895 11.4461,28.63719 -3.3101,2.09016 -25.19605,4.5343 -48.63525,5.43142 -33.3807,1.27762 -48.5815,-0.62088 -70.1383,-8.75989 z"
         id="path1460"
         inkscape:connector-curvature="0" />
      <path
         style="opacity:1;fill:#ffffff;fill-opacity:1;fill-rule:evenodd;stroke:#ffffff;stroke-width:0;stroke-miterlimit:4;stroke-dasharray:none;stroke-dashoffset:0;stroke-opacity:1"
         d="m -963.16075,550.95914 c -17.3359,-23.04561 -43.49885,-83.22503 -48.73875,-112.10793 l -3.3079,-18.23302 54.17645,-16.06078 c 77.0252,-22.8344 79.9769,-23.39065 82.7474,-15.59409 1.3233,3.72402 0.6544,24.92745 -1.4866,47.11872 -4.5166,46.81502 -24.198,93.10034 -50.7647,119.38483 l -16.7608,16.58266 z"
         id="path1462"
         inkscape:connector-curvature="0" />
    </g>
  </g>
</svg>
