<svg xmlns="http://www.w3.org/2000/svg" xmlns:xlink="http://www.w3.org/1999/xlink" width="100" height="100"><defs><radialGradient xlink:href="#a" id="b" cx="-614.345" cy="48.835" fx="-614.345" fy="48.835" r="286.189" gradientTransform="matrix(-.00243 1.81506 -1.36943 -.00183 -548.965 1164.001)" gradientUnits="userSpaceOnUse"/><linearGradient id="a"><stop offset="0" stop-color="#666"/><stop offset="1" stop-color="#666" stop-opacity=".212"/></linearGradient><filter id="c" x="-.06" width="1.12" y="-.06" height="1.12" color-interpolation-filters="sRGB"><feGaussianBlur stdDeviation="14.298"/></filter></defs><path d="M11.298 93.733c-1.762-.626-4.184-2.73-5.262-4.57l-1.195-2.04-.003-37.496c-.001-20.623.15-38.045.338-38.715.473-1.692 2.811-4.245 4.837-5.28 1.639-.837 2.956-.866 39.323-.866 41.354 0 39.317-.133 42.03 2.755 2.767 2.946 2.605.74 2.746 37.419.072 18.536-.047 35.965-.264 38.733-.361 4.61-.505 5.17-1.716 6.695-.727.916-2.205 2.116-3.285 2.669l-1.963 1.004-37.458-.035c-20.603-.02-37.76-.142-38.128-.273z" fill="none"/><path d="M-859.125 332.58c-11.297-4.008-26.824-17.474-33.733-29.256l-7.658-13.057-.019-240c-.01-132 .964-243.513 2.165-247.805 3.031-10.83 18.022-27.17 31.003-33.792 10.507-5.36 18.95-5.546 252.065-5.546 265.073 0 252.018-.855 269.406 17.634 17.736 18.858 16.697 4.733 17.606 239.509.46 118.642-.303 230.206-1.694 247.92-2.317 29.504-3.24 33.099-11 42.857-4.66 5.858-14.134 13.544-21.055 17.08l-12.583 6.428-240.108-.225c-132.06-.124-242.038-.91-244.395-1.747z" transform="matrix(.156 0 0 .15623 145.842 42.37)" fill="url(#b)" filter="url(#c)"/><path d="M7.37 90.708c-1.762-.626-4.184-2.73-5.262-4.57l-1.195-2.04L.91 46.601c-.002-20.623.15-38.044.338-38.715.473-1.692 2.811-4.245 4.837-5.28 1.639-.837 2.956-.866 39.323-.866 41.354 0 39.317-.133 42.03 2.755 2.767 2.946 2.605.74 2.746 37.419.072 18.536-.047 35.966-.264 38.733-.361 4.61-.505 5.171-1.716 6.696-.727.915-2.205 2.116-3.285 2.668l-1.963 1.004-37.458-.035c-20.603-.02-37.76-.142-38.128-.273z" fill="#f67e07"/><path d="M9.711 40.865l-.195-.21V22.056l.52-.428c1.446-1.189 4.697-3.327 10.719-7.049 1.762-1.09 2.674-1.613 2.755-1.58.108.042 1.36.82 3.14 1.952l2.252 1.426c3.731 2.363 6.824 4.4 7.75 5.107l.526.402v9.376c0 9.36 0 9.377-.15 9.594l-.15.218H23.992l-.195-.21-.195-.21-.018-5.993-.019-5.993h-8.93l-.019 5.993-.018 5.993-.195.21-.194.21H9.907l-.195-.21zm25.543-8.635v-3.56h-7.478l-.019 3.485c-.01 1.917-.003 3.528.016 3.58.028.074.819.09 3.758.075l3.723-.02v-3.56zM6.566 21.29c-.39-.096-.734-.368-.89-.7-.194-.414-.263-1.056-.158-1.46.177-.675 1.457-1.775 3.163-2.718.4-.221 1.037-.609 1.416-.862l1.416-.944 2.017-1.343c.71-.473 1.347-.894 1.415-.935.068-.041.337-.212.597-.38 4.399-2.834 5.854-3.74 6.945-4.326.47-.252.572-.278 1.09-.278h.571l1.875 1.237c1.03.68 1.904 1.218 1.94 1.195.037-.024.067-.435.067-.915 0-.844.007-.879.195-1.082l.195-.21H36.643l.194.209.195.21.019 3.931.018 3.932.545.291c1.834.98 3.007 1.853 3.521 2.624.266.398.29.475.285.903-.008.792-.428 1.284-1.322 1.548a4.904 4.904 0 01-.564.144c-.06 0-1.862-1.028-2.356-1.344-.204-.131-1.341-.852-2.468-1.566a148.727 148.727 0 01-1.96-1.254c-.223-.145-1.826-1.18-3.067-1.977-1.398-.9-3.791-2.461-5.26-3.432-.811-.536-.98-.62-1.102-.552-.08.044-.776.49-1.548.99-.771.5-1.598 1.033-1.838 1.186-.24.152-.828.532-1.307.843-3.55 2.309-9.078 5.78-10.526 6.608-.88.504-1.04.548-1.536.426z" fill="#fff"/><path d="M-528.958-203.257v-22.411h47.44v44.822h-47.44v-22.411z" fill="#ff0" stroke="#fff" stroke-width="12.473" transform="matrix(.156 0 0 .15623 110.366 63.989)"/><path d="M53.937 40.752l-.196-.21V21.943l.52-.428c1.446-1.19 4.697-3.327 10.719-7.049 1.762-1.09 2.674-1.613 2.755-1.58.108.042 1.36.82 3.14 1.952l2.252 1.426c3.731 2.363 6.824 4.4 7.75 5.107l.526.401v9.377c0 9.36 0 9.377-.15 9.594l-.15.218H68.217l-.195-.21-.195-.21-.018-5.993-.019-5.993h-8.93l-.018 5.993-.019 5.993-.195.21-.194.21h-4.302l-.195-.21zm25.542-8.635v-3.56h-7.478l-.019 3.485c-.01 1.917-.003 3.528.017 3.58.027.074.818.09 3.758.075l3.723-.02v-3.56zm-28.688-10.94c-.39-.097-.734-.368-.89-.7-.194-.414-.263-1.056-.158-1.46.177-.675 1.457-1.775 3.164-2.718.399-.221 1.036-.61 1.415-.863l1.416-.944 2.017-1.342c.71-.473 1.347-.894 1.415-.935.068-.041.337-.212.597-.38 4.399-2.834 5.854-3.74 6.945-4.326.47-.252.572-.279 1.09-.279h.571l1.875 1.238c1.03.68 1.904 1.218 1.94 1.195.037-.024.067-.435.067-.915 0-.844.007-.879.195-1.082l.196-.21H80.868l.194.209.195.21.019 3.931.018 3.932.545.291c1.834.98 3.007 1.853 3.521 2.624.266.398.29.475.286.903-.01.792-.43 1.284-1.323 1.548a4.904 4.904 0 01-.564.144c-.06 0-1.862-1.028-2.356-1.344-.204-.131-1.341-.852-2.468-1.566a148.982 148.982 0 01-1.96-1.254c-.222-.145-1.826-1.18-3.067-1.977-1.398-.9-3.791-2.461-5.26-3.432-.811-.536-.98-.62-1.102-.552-.08.044-.776.49-1.548.99-.771.5-1.598 1.033-1.838 1.186-.24.152-.828.532-1.307.843-3.55 2.308-9.078 5.78-10.526 6.608-.88.503-1.04.548-1.536.426z" fill="#fff"/><path d="M-245.477-203.981v-22.411h47.44v44.822h-47.44v-22.411z" fill="#ff0" stroke="#fff" stroke-width="12.473" transform="matrix(.156 0 0 .15623 110.366 63.989)"/><path d="M30.636 85.316l-.195-.21V66.508l.52-.428c1.446-1.189 4.697-3.327 10.719-7.049 1.762-1.09 2.674-1.612 2.755-1.58.107.042 1.36.82 3.14 1.952l2.251 1.426c3.732 2.363 6.825 4.401 7.75 5.107l.527.402v9.376c0 9.36 0 9.377-.15 9.594l-.15.218H44.917l-.195-.21-.195-.21-.018-5.992-.019-5.993h-8.93l-.019 5.993-.018 5.993-.195.21-.194.21h-4.302l-.195-.211zM56.18 76.68v-3.56h-7.478l-.019 3.485c-.01 1.917-.003 3.528.016 3.58.028.075.819.09 3.758.075l3.723-.02v-3.56zm-28.688-10.94c-.39-.096-.734-.368-.89-.7-.194-.414-.263-1.056-.158-1.46.177-.674 1.457-1.775 3.163-2.718.4-.22 1.037-.609 1.416-.862l1.416-.944 2.017-1.343c.71-.473 1.347-.893 1.415-.934.068-.042.337-.212.597-.38 4.399-2.835 5.854-3.741 6.945-4.327.47-.252.572-.278 1.09-.278h.571l1.874 1.237c1.031.68 1.905 1.219 1.942 1.195.036-.023.066-.435.066-.915 0-.844.006-.879.195-1.082l.195-.21H57.567l.195.21.195.209.019 3.932.018 3.932.545.29c1.834.98 3.007 1.854 3.521 2.624.266.398.29.476.285.904-.008.792-.429 1.283-1.322 1.547a4.9 4.9 0 01-.564.144c-.06 0-1.862-1.027-2.356-1.344l-2.468-1.566a148.483 148.483 0 01-1.96-1.254c-.223-.145-1.827-1.179-3.067-1.977-1.398-.9-3.791-2.46-5.26-3.431-.811-.536-.98-.62-1.102-.553-.08.044-.776.49-1.548.99-.771.5-1.599 1.034-1.838 1.186-.24.152-.828.532-1.307.844-3.55 2.308-9.078 5.779-10.526 6.607-.88.504-1.04.549-1.536.427z" fill="#fff"/><path d="M-394.83 81.265V58.854h47.44v44.822h-47.44V81.265z" fill="#ff0" stroke="#fff" stroke-width="12.473" transform="matrix(.156 0 0 .15623 110.366 63.989)"/></svg>