<svg xmlns="http://www.w3.org/2000/svg" xmlns:xlink="http://www.w3.org/1999/xlink" width="100" height="100"><defs><linearGradient id="a"><stop offset="0" stop-color="#fff" stop-opacity=".727"/><stop offset="1" stop-color="#fff"/></linearGradient><linearGradient id="b"><stop offset="0" stop-color="#fff"/><stop offset="1" stop-color="#fff" stop-opacity="0"/></linearGradient><linearGradient id="c"><stop offset="0" stop-color="#66e11c"/><stop offset="1" stop-color="#3d9800"/></linearGradient><linearGradient id="d"><stop offset="0" stop-color="#fff" stop-opacity="0"/><stop offset="1" stop-color="#fff"/></linearGradient><linearGradient id="e"><stop offset="0" stop-color="gray"/><stop offset="1" stop-color="gray" stop-opacity="0"/></linearGradient><radialGradient xlink:href="#e" id="f" cx="1332.707" cy="-116.077" fx="1332.707" fy="-116.077" r="286.189" gradientTransform="matrix(-.05893 1.86521 -2.0165 -.0637 850.082 -2500.946)" gradientUnits="userSpaceOnUse"/><filter id="g" x="-.036" width="1.072" y="-.036" height="1.072" color-interpolation-filters="sRGB"><feGaussianBlur stdDeviation="8.579"/></filter></defs><path d="M760.842 275.974c-11.297-4.009-26.824-17.475-33.733-29.257l-7.657-13.057-.02-240c-.01-132 .965-243.512 2.166-247.805 3.03-10.83 18.021-27.17 31.003-33.792 10.507-5.36 18.95-5.546 252.064-5.546 265.073 0 252.018-.854 269.406 17.634 17.736 18.859 16.698 4.733 17.607 239.509.459 118.643-.303 230.207-1.695 247.92-2.317 29.505-3.24 33.1-11 42.857-4.66 5.858-14.134 13.544-21.054 17.08l-12.583 6.429-240.109-.226c-132.06-.124-242.038-.91-244.395-1.746z" transform="matrix(.15405 0 0 .15507 -102.185 53.712)" opacity=".884" fill="url(#f)" filter="url(#g)"/><path d="M742.06 263.636c-11.297-4.008-26.823-17.475-33.733-29.256l-7.657-13.058-.019-240c-.01-132 .964-243.512 2.165-247.805 3.031-10.83 18.021-27.17 31.003-33.792 10.507-5.36 18.95-5.546 252.065-5.546 265.072 0 252.018-.854 269.405 17.634 17.736 18.859 16.698 4.734 17.607 239.509.46 118.643-.303 230.207-1.694 247.92-2.318 29.505-3.24 33.1-11.001 42.857-4.66 5.859-14.134 13.544-21.054 17.08l-12.583 6.429-240.109-.226c-132.06-.124-242.037-.91-244.394-1.746z" fill="#34558a" stroke="#fff" transform="matrix(.15951 0 0 .16067 -111.76 49.134)" stroke-width="19.863"/><path d="M41.836 39.789l-3.277 12.236" fill="none" stroke="#fff" stroke-width="11.948" stroke-linecap="round"/><path d="M39.527 56.575l-4.52 9.526-1.233 12.655M35.137 52.732l-8.813 8.417-7.273 15.073" fill="none" stroke="#fff" stroke-width="6.445" stroke-linecap="round" stroke-linejoin="round"/><path d="M44.818 36.98l6.984 8.425-6.748 9.767M39.155 36.387l-9.758-2.04 4.07-6.253" fill="none" stroke="#fff" stroke-width="5.156" stroke-linecap="round" stroke-linejoin="round"/><path d="M43.68 34.397c.754.188 1.668.13 2.455-.155.755-.274.748-.291-.402-1.084-1.207-.832-1.483-1.452-1.469-3.306l.01-1.428-1.81-1.098c-2.084-1.266-1.987-1.267-2.335.023-.468 1.73-.234 3.376.687 4.838.51.808.704 1.01 1.445 1.502.487.322 1.1.628 1.418.708zm5.531-.963c.38-.287 1.164-2.023 1.342-2.971.558-2.985-.64-5.93-2.99-7.356-1.568-.95-3.141-1.112-4.74-.487-.838.328-2.132 1.223-2.31 1.598-.117.25.179.475 2.393 1.82 2.67 1.62 2.647 1.59 2.584 3.37-.07 1.963-.073 1.958 1.85 3.183 1.578 1.007 1.626 1.028 1.871.843z" fill="#fff"/><path d="M25.328 6.65c.198.114 1.749 1.764 3.447 3.665 9.286 10.396 10.518 11.808 10.591 12.137.043.193.013.529-.067.747-.3.82-.015.796-9.485.796h-8.66l-.412-.41c-.469-.467-.834-1.34-1.131-2.702-.28-1.284-.28-4.28.002-5.639.538-2.604 2.005-5.781 3.454-7.483.96-1.127 1.651-1.466 2.262-1.112z" fill="#ff0"/><path d="M33.395 4.44l1.232 32.792M42.015 51.186a62.28 62.28 0 0015.084 21.629A62.163 62.163 0 0072.49 83.28" fill="none" stroke="#fff" stroke-width=".516"/><path d="M77.47 26.892l-8.694-15.083-9.038 14.873 4.432.052-.01 1.727-.005.66-.13 20.57-4.432-.053 8.85 15.085 8.882-14.874-4.432-.053.13-20.569.004-.66.01-1.728 4.433.053z" fill="#fff" fill-rule="evenodd"/></svg>