<svg xmlns="http://www.w3.org/2000/svg" xmlns:xlink="http://www.w3.org/1999/xlink" width="100" height="100"><defs><radialGradient xlink:href="#a" id="b" cx="-1380.014" cy="14.258" fx="-1380.014" fy="14.258" r="286.189" gradientTransform="matrix(-.0124 1.41624 -1.50853 -.01321 -604.363 2011.032)" gradientUnits="userSpaceOnUse"/><linearGradient id="a"><stop offset="0" stop-color="#666"/><stop offset="1" stop-color="#666" stop-opacity="0"/></linearGradient><filter id="c" x="-.012" width="1.024" y="-.012" height="1.024" color-interpolation-filters="sRGB"><feGaussianBlur stdDeviation="2.86"/></filter></defs><path d="M-853.53 340.161c-11.298-4.008-26.824-17.474-33.734-29.256l-7.657-13.057-.02-240c-.01-132 .965-243.513 2.166-247.805 3.03-10.83 18.021-27.17 31.003-33.792 10.507-5.36 18.95-5.546 252.064-5.546 265.073 0 252.019-.855 269.406 17.633 17.736 18.86 16.698 4.734 17.607 239.51.46 118.642-.303 230.206-1.695 247.92-2.317 29.504-3.24 33.099-11 42.857-4.66 5.858-14.134 13.544-21.054 17.08l-12.583 6.428-240.109-.225c-132.06-.124-242.037-.91-244.395-1.747z" transform="matrix(.16042 0 0 .16155 150.64 43.625)" opacity=".93" fill="url(#b)" filter="url(#c)"/><path d="M-887.6 309.399c-11.298-4.009-26.824-17.475-33.734-29.257l-7.657-13.057-.019-240c-.01-132 .964-243.512 2.165-247.805 3.031-10.83 18.021-27.17 31.003-33.792 10.507-5.36 18.95-5.546 252.065-5.546 265.072 0 252.018-.855 269.405 17.634 17.736 18.859 16.698 4.733 17.607 239.509.46 118.643-.303 230.207-1.694 247.92-2.318 29.504-3.24 33.1-11.001 42.857-4.66 5.858-14.134 13.544-21.054 17.08l-12.583 6.428-240.109-.225c-132.06-.124-242.037-.91-244.394-1.746z" transform="matrix(.16042 0 0 .16155 150.64 43.625)" fill="#34558a" stroke="#fff" stroke-width="20"/><path d="M-631.405-164.644l185.88-.615" fill="#ff0" stroke="#ff0" stroke-width="28.067" stroke-linecap="round" transform="matrix(.16042 0 0 .16155 111.63 65.527)"/><path d="M-614.474 9.599h37.171s38.691-206.028 151.645-208.553C-312.704-201.478-262.17 9.6-262.17 9.6h38.487" fill="none" stroke-width="60" stroke-linecap="round" transform="matrix(.07504 0 0 .07557 56.698 28.41)" stroke="#fff"/><path d="M-374.52-161.962l185.881-.616" fill="#ff0" stroke="#ff0" stroke-width="28.067" stroke-linecap="round" transform="matrix(.16042 0 0 .16155 111.63 65.527)"/><path d="M-614.474 9.599h37.171s38.691-206.028 151.645-208.553C-312.704-201.478-262.17 9.6-262.17 9.6h38.487" fill="none" stroke-width="60" stroke-linecap="round" transform="matrix(.07504 0 0 .07557 97.907 28.843)" stroke="#fff"/><path d="M-502.15 78.827l185.88-.615" fill="#ff0" stroke="#ff0" stroke-width="28.067" stroke-linecap="round" transform="matrix(.16042 0 0 .16155 111.63 65.527)"/><path d="M-614.474 9.599h37.171s38.691-206.028 151.645-208.553C-312.704-201.478-262.17 9.6-262.17 9.6h38.487" fill="none" stroke-width="60" stroke-linecap="round" transform="matrix(.07504 0 0 .07557 77.433 67.742)" stroke="#fff"/></svg>