<svg xmlns="http://www.w3.org/2000/svg" width="100" height="100"><path d="M-887.6 309.399c-11.298-4.009-26.824-17.475-33.734-29.257l-7.657-13.057-.019-240c-.01-132 .964-243.512 2.165-247.805 3.031-10.83 18.021-27.17 31.003-33.792 10.507-5.36 18.95-5.546 252.065-5.546 265.072 0 252.018-.855 269.405 17.634 17.736 18.859 16.698 4.733 17.607 239.509.46 118.643-.303 230.207-1.694 247.92-2.318 29.504-3.24 33.1-11.001 42.857-4.66 5.858-14.134 13.544-21.054 17.08l-12.583 6.428-240.109-.225c-132.06-.124-242.037-.91-244.394-1.746z" stroke="#fff" stroke-width="20" transform="matrix(.1688 0 0 .16908 158.512 45.663)" fill="#00f"/><path d="M-31.525 32.542l-3.614-1.981-3.682 1.853.768-4.05-2.9-2.928 4.089-.52 1.888-3.664 1.76 3.727 4.067.665-3.002 2.824z" transform="matrix(.7573 0 0 .80379 56.526 -4.099)" fill="#ff0" stroke="#000" stroke-width="1.3"/><path d="M-31.525 32.542l-3.614-1.981-3.682 1.853.768-4.05-2.9-2.928 4.089-.52 1.888-3.664 1.76 3.727 4.067.665-3.002 2.824z" transform="matrix(.7573 0 0 .80379 74.64 66.374)" fill="#ff0" stroke="#000" stroke-width="1.3"/><path d="M-31.525 32.542l-3.614-1.981-3.682 1.853.768-4.05-2.9-2.928 4.089-.52 1.888-3.664 1.76 3.727 4.067.665-3.002 2.824z" transform="matrix(.7573 0 0 .80379 42.537 46.714)" fill="#ff0" stroke="#000" stroke-width="1.3"/><path d="M-31.525 32.542l-3.614-1.981-3.682 1.853.768-4.05-2.9-2.928 4.089-.52 1.888-3.664 1.76 3.727 4.067.665-3.002 2.824z" transform="matrix(.7573 0 0 .80379 42.337 8.742)" fill="#ff0" stroke="#000" stroke-width="1.3"/><path d="M-31.525 32.542l-3.614-1.981-3.682 1.853.768-4.05-2.9-2.928 4.089-.52 1.888-3.664 1.76 3.727 4.067.665-3.002 2.824z" transform="matrix(.7573 0 0 .80379 91.767 -4.917)" fill="#ff0" stroke="#000" stroke-width="1.3"/><path d="M-31.525 32.542l-3.614-1.981-3.682 1.853.768-4.05-2.9-2.928 4.089-.52 1.888-3.664 1.76 3.727 4.067.665-3.002 2.824z" transform="matrix(.7573 0 0 .80379 106.267 8.736)" fill="#ff0" stroke="#000" stroke-width="1.3"/><path d="M-31.525 32.542l-3.614-1.981-3.682 1.853.768-4.05-2.9-2.928 4.089-.52 1.888-3.664 1.76 3.727 4.067.665-3.002 2.824z" transform="matrix(.7573 0 0 .80379 110.33 28.45)" fill="#ff0" stroke="#000" stroke-width="1.3"/><path d="M-31.525 32.542l-3.614-1.981-3.682 1.853.768-4.05-2.9-2.928 4.089-.52 1.888-3.664 1.76 3.727 4.067.665-3.002 2.824z" transform="matrix(.7573 0 0 .80379 106.029 46.529)" fill="#ff0" stroke="#000" stroke-width="1.3"/><path d="M-31.525 32.542l-3.614-1.981-3.682 1.853.768-4.05-2.9-2.928 4.089-.52 1.888-3.664 1.76 3.727 4.067.665-3.002 2.824z" transform="matrix(.7573 0 0 .80379 93.429 60.148)" fill="#ff0" stroke="#000" stroke-width="1.3"/><path d="M-31.525 32.542l-3.614-1.981-3.682 1.853.768-4.05-2.9-2.928 4.089-.52 1.888-3.664 1.76 3.727 4.067.665-3.002 2.824z" transform="matrix(.7573 0 0 .80379 74.392 -9.89)" fill="#ff0" stroke="#000" stroke-width="1.3"/><path d="M-31.525 32.542l-3.614-1.981-3.682 1.853.768-4.05-2.9-2.928 4.089-.52 1.888-3.664 1.76 3.727 4.067.665-3.002 2.824z" transform="matrix(.7573 0 0 .80379 56.02 60.784)" fill="#ff0" stroke="#000" stroke-width="1.3"/><path d="M-31.525 32.542l-3.614-1.981-3.682 1.853.768-4.05-2.9-2.928 4.089-.52 1.888-3.664 1.76 3.727 4.067.665-3.002 2.824z" transform="matrix(.7573 0 0 .80379 38.516 28.063)" fill="#ff0" stroke="#000" stroke-width="1.3"/><path d="M257.642 28.653c1.223-4.063 6.745-7.378 7.933-10.343 1.19-2.964.173-4.723 1.396-7.144 1.222-2.42 9.36-8.073 5.47-7.46-3.89.613-13.273 5.877-20.853 9.979-7.58 4.1-16.52 24.34-18.161 25.66.512-3.626.57-5.462.672-7.841.102-2.379-1.436-5.464-1.436-5.464l-3.99 7.793-3.541-7.889s-1.915 2.583-1.884 6.463c.03 3.88.542 5.758.134 8.079-4.178-8.71-9.155-17.87-15.516-23.95-6.362-6.081-26.817-19.275-22.198-12.83 4.618 6.444 3.584 3.944 4.367 6.498.784 2.553-.33 4.64 1.014 7.757 1.344 3.118 6.323 5.884 8.086 9.974 1.762 4.09 2.424 8.24 2.004 12.122 4.142.391 6.891 3.92 9.427 6.508 2.535 2.589 4.474 6.559 5.403 10.975.929 4.416.242 8.358 2.493 11.11 2.252 2.754 4.824 1.984 6.22 3.482 1.395 1.498.426 1.552 1.345 4.99.919-2.08 1.368-3.467 2.736-3.564 1.369-.098 1.325.439 1.973 3.563 2.263-3.532 1.242-4.964 3.229-5.606 1.987-.642 4.123-.027 6.009-3.517 1.098-2.034.923-4.535 1.12-10.165.68-3.528 1.468-7.43 5.116-11.145 3.725-3.792 6.526-4.13 9.952-5.442.929-6.834.258-8.53 1.48-12.593z" fill="#ff0" stroke="#000" stroke-width="2.043" transform="matrix(.57246 0 0 .5734 -83.461 31.632)"/></svg>