<svg xmlns="http://www.w3.org/2000/svg" width="192" height="192"><path d="M8 120v-18h26.468C34.468 70 61 38.304 96 38.304V120H8zM184 120v-18h-26.015C157.985 70 132 38.304 96 38.304V120h88z" fill="#fff"/><path fill="#757575" d="M75.642 116.771l-7.516-33.034-7.515 33.034M119.479 44.538l7.886 34.226 5.796-25.171"/><path fill="#757575" d="M110.365 39.37l5.175 22.764 4.308-18.954"/><path d="M96.227 38.451C61.114 38.451 34.468 70 34.468 102H8" fill="none" stroke="#757575" stroke-width="8" stroke-miterlimit="10"/><path d="M96 38.451c35.114 0 61.986 31.549 61.986 63.549H184" fill="none" stroke="#757575" stroke-width="8" stroke-miterlimit="10"/><g><path fill="#757575" d="M96 120H8"/><path fill="none" stroke="#757575" stroke-width="8" stroke-miterlimit="10" d="M96 120H8"/><g><path fill="#757575" d="M96 120h88"/><path fill="none" stroke="#757575" stroke-width="8" stroke-miterlimit="10" d="M96 120h88"/></g></g></svg>