<svg xmlns="http://www.w3.org/2000/svg" width="192" height="192"><path d="M32 65v-7h9.913C41.913 46 52 34.367 65 34.367V65H32zM98 65v-7h-9.82C88.18 46 78 34.367 65 34.367V65h33z" fill="#fff"/><path fill="#757575" d="M57.336 63.758l-2.815-12.373-2.814 12.373M73.755 36.703l2.955 12.818 2.171-9.427"/><path fill="#757575" d="M70.342 34.767l1.939 8.525 1.613-7.098"/><path d="M65.047 34.198C51.895 34.198 41.913 46 41.913 58H32" fill="none" stroke="#757575" stroke-width="4" stroke-miterlimit="10"/><path d="M65 34.198C78.152 34.198 88.18 46 88.18 58H98" fill="none" stroke="#757575" stroke-width="4" stroke-miterlimit="10"/><g><path fill="#757575" d="M65 65H32"/><path fill="none" stroke="#757575" stroke-width="4" stroke-miterlimit="10" d="M65 65H32"/><g><path fill="#757575" d="M65 65h33"/><path fill="none" stroke="#757575" stroke-width="4" stroke-miterlimit="10" d="M65 65h33"/></g></g><g><path d="M59 98V87h16.939C75.939 67 93 46.17 115 46.17V98H59zM172 98V87h-16.996c0-20-17.004-40.83-40.004-40.83V98h57z" fill="#fff"/><path fill="#757575" d="M102.297 96.396l-4.811-21.144-4.81 21.144M130.355 50.161l5.049 21.907 3.71-16.111"/><path fill="#757575" d="M124.522 46.853l3.313 14.57 2.757-12.131"/><path d="M115.473 46.324C92.997 46.324 75.939 67 75.939 87H59M115.498 46.324c22.477 0 39.506 20.676 39.506 40.676H172" fill="none" stroke="#757575" stroke-width="6" stroke-miterlimit="10"/><g><path fill="#757575" d="M115 98H59"/><path fill="none" stroke="#757575" stroke-width="6" stroke-miterlimit="10" d="M115 98H59"/><g><path fill="#757575" d="M115 98h57"/><path fill="none" stroke="#757575" stroke-width="6" stroke-miterlimit="10" d="M115 98h57"/></g></g></g><g><path d="M8 156v-18h26.468C34.468 106 61 74.078 96 74.078V156H8zM184 156v-18h-26.015c0-32-25.985-63.922-61.985-63.922V156h88z" fill="#fff"/><path fill="#757575" d="M75.642 152.546l-7.516-33.034-7.515 33.034M119.479 80.313l7.886 34.225 5.796-25.171"/><path fill="#757575" d="M110.365 75.145l5.175 22.763 4.308-18.954"/><path d="M96.227 74.451C61.114 74.451 34.468 106 34.468 138H8" fill="none" stroke="#757575" stroke-width="8" stroke-miterlimit="10"/><path d="M96 74.451c35.114 0 61.986 31.549 61.986 63.549H184" fill="none" stroke="#757575" stroke-width="8" stroke-miterlimit="10"/><g><path fill="#757575" d="M96 156H8"/><path fill="none" stroke="#757575" stroke-width="8" stroke-miterlimit="10" d="M96 156H8"/><g><path fill="#757575" d="M96 156h88"/><path fill="none" stroke="#757575" stroke-width="8" stroke-miterlimit="10" d="M96 156h88"/></g></g></g></svg>