<svg xmlns="http://www.w3.org/2000/svg" xmlns:xlink="http://www.w3.org/1999/xlink" width="100" height="100"><defs><linearGradient id="d"><stop offset="0" stop-color="gray"/><stop offset="1" stop-color="gray" stop-opacity="0"/></linearGradient><linearGradient id="a"><stop offset="0" stop-color="#fff" stop-opacity="0"/><stop offset="1" stop-color="#fff"/></linearGradient><linearGradient id="c"><stop offset="0" stop-color="#00b400"/><stop offset="1" stop-color="#00b400" stop-opacity="0"/></linearGradient><linearGradient id="b"><stop offset="0" stop-color="#001c00"/><stop offset="1" stop-color="#001c00" stop-opacity="0"/></linearGradient><radialGradient xlink:href="#d" id="e" cx="1332.707" cy="-116.077" fx="1332.707" fy="-116.077" r="286.189" gradientTransform="matrix(-.05893 1.86521 -2.0165 -.0637 850.082 -2500.946)" gradientUnits="userSpaceOnUse"/><filter id="f" x="-.036" width="1.072" y="-.036" height="1.072" color-interpolation-filters="sRGB"><feGaussianBlur stdDeviation="8.579"/></filter></defs><path transform="matrix(.16303 0 0 .16318 -113.944 51.268)" d="M760.842 275.974c-11.297-4.009-26.824-17.475-33.733-29.257l-7.657-13.057-.02-240c-.01-132 .965-243.512 2.166-247.805 3.03-10.83 18.021-27.17 31.003-33.792 10.507-5.36 18.95-5.546 252.064-5.546 265.073 0 252.018-.854 269.406 17.634 17.736 18.859 16.698 4.733 17.607 239.509.459 118.643-.303 230.207-1.695 247.92-2.317 29.505-3.24 33.1-11 42.857-4.66 5.858-14.134 13.544-21.054 17.08l-12.583 6.429-240.109-.226c-132.06-.124-242.038-.91-244.395-1.746z" opacity=".884" fill="url(#e)" filter="url(#f)"/><path d="M744.06 263.636c-11.297-4.008-26.823-17.475-33.733-29.256l-7.657-13.058-.019-240c-.01-132 .964-243.512 2.165-247.805 3.031-10.83 18.021-27.17 31.003-33.792 10.507-5.36 18.95-5.546 252.065-5.546 265.072 0 252.018-.854 269.405 17.634 17.736 18.859 16.698 4.734 17.607 239.509.46 118.643-.303 230.207-1.694 247.92-2.318 29.505-3.24 33.1-11.001 42.857-4.66 5.859-14.134 13.544-21.054 17.08l-12.583 6.429-240.109-.226c-132.06-.124-242.037-.91-244.394-1.746z" transform="matrix(.16044 0 0 .15829 -112.161 49.755)" fill="#34558a" stroke="#fff" stroke-width="20"/><g fill="#fff"><path d="M34.798 23.733c-1.247-.136-2.623-.664-3.698-1.42-1.03-.724-1.012-.743 1.124-1.18 2.242-.458 2.954-1.11 3.799-3.479l.65-1.824 3.293-.498c3.79-.573 3.642-.623 3.575 1.192-.09 2.436-1.219 4.417-3.317 5.82-1.158.776-1.553.937-2.919 1.194-.897.168-1.98.253-2.507.195zm-8.042-3.98c-.45-.555-.842-3.156-.671-4.452.537-4.08 3.752-7.235 8.026-7.88 2.85-.43 5.34.148 7.503 1.74 1.134.835 2.701 2.618 2.798 3.185.065.377-.495.516-4.522 1.125-4.856.735-4.806.708-5.54 3.007-.811 2.535-.805 2.53-4.327 3.134-2.893.496-2.978.5-3.267.142z"/><path d="M14.612 84.346c1.252-.9 2.99-3.56 8.144-12.467 2.45-4.235 3.35-6.306 3.805-8.754.328-1.764.734-3.467.903-3.785.196-.369 1.526.748 3.664 3.076 1.846 2.01 3.52 3.922 3.718 4.25.199.33.991 3.822 1.76 7.763 1.62 8.3 2.335 9.824 5.042 10.764 1.749.606 2.097.584 3.785-.237 1.341-.652 2.047-1.4 2.532-2.683.615-1.628.54-2.485-.897-10.174-.862-4.617-1.804-8.864-2.094-9.436-.29-.572-2.925-3.881-5.856-7.353l-5.329-6.314 1.077-4.476c1.05-4.366 1.093-4.444 1.72-3.148.8 1.65 10.517 8.36 12.588 8.693 2.252.362 4.102-1.278 4.102-3.636 0-1.579-.276-2.047-2.028-3.451-1.116-.894-3.283-2.443-4.818-3.442-2.666-1.736-2.932-2.099-6.036-8.226-1.786-3.525-3.903-7.026-4.705-7.78-3.752-2.39-4.814-2.037-7.474-1.508-.644.16-4.382 2.856-8.306 5.99-5.323 4.253-7.258 6.083-7.621 7.21-.78 2.418-2.91 12.183-2.91 13.339 0 1.79 1.766 3.55 3.561 3.55 2.832 0 3.57-1.104 5.063-7.557 1.164-5.037 2.046-7.1 2.739-6.413.097.096-1.14 5.963-2.75 13.037L15.062 64.04l-4.273 7.193c-3.445 5.798-4.274 7.557-4.274 9.072 0 4.383 4.497 6.627 8.096 4.04z"/><path d="M1688.506 850.607c-17.792 2.4-27.776 5.843-41.428 14.286-7.05 4.36-17.123 12.09-17.123 13.14 0 .867 14.03 15.323 14.87 15.323.228 0 1.997-1.274 3.931-2.831 7.419-5.973 17.305-11.85 23.543-13.997 4.413-1.518 12.805-3.008 20.853-3.701 17.85-1.539 36.362 2.66 49.895 11.317 13.871 8.873 26.326 24.38 32.88 40.938 5.147 13.003 6.449 30.344 3.4 45.292-7.053 34.59-38.705 61.568-75.11 64.02-14.117.951-31.987-3.33-45.018-10.786-6.122-3.503-10.712-7.135-16.903-13.376-14.013-14.125-22.246-31.045-23.203-47.683l-.325-5.636 14.084-.14c9.44-.094 14.144-.326 14.27-.703.103-.31-8.29-9.171-18.65-19.692l-18.839-19.129-5.724 5.348c-11.21 10.474-33.429 33.128-33.066 33.714.249.403 4.252.585 12.895.585h12.534l.34 3.02c3.355 29.863 15.91 55.324 35.27 71.525 20.13 16.845 42.52 25.247 67.194 25.217 16.957-.021 30.777-3.118 45.736-10.249 11.065-5.275 18.91-10.705 27.647-19.134 14.645-14.13 24.324-32.38 28.692-54.1 3.776-18.78 2.883-34.298-2.994-51.987-2.325-7-8.058-18.828-12.089-24.944-12.767-19.372-31.414-33.563-53.77-40.919-11.604-3.818-16.7-4.62-30.401-4.787-6.499-.08-12.524-.048-13.39.069zm24.074 1.528c29.517 3.87 55.417 19.834 71.984 44.372 6.932 10.267 13.49 26.272 16.153 39.427 1.034 5.105 1.21 7.517 1.179 16.236-.025 7.162-.308 11.816-.94 15.487-3.222 18.692-9.67 34.257-19.81 47.82-4.501 6.023-15.089 16.273-21.391 20.71-16.757 11.799-36.313 18.4-57.07 19.263-16.365.68-31.441-2.618-47.261-10.34-22.22-10.846-38.216-27.16-47.747-48.695-4.64-10.482-8.78-25.912-9.564-35.647-.184-2.274-.567-4.43-.851-4.791-.387-.49-3.52-.657-12.397-.657h-11.88l18.112-18.116 18.11-18.117 17.726 17.72c9.75 9.746 17.726 17.898 17.726 18.117 0 .218-5.73.4-12.734.404-7.004.004-13.062.216-13.463.47-1.222.774-.481 12.808 1.167 18.952 5.455 20.331 20.538 39.58 39.464 50.365 19.497 11.11 44.698 13.618 66.057 6.575 30.606-10.093 52.974-36.966 56.596-67.995.751-6.436.35-19.173-.812-25.843-4.212-24.154-23.2-49.083-45.082-59.188-11.322-5.229-20.536-7.064-35.53-7.076-22.791-.019-34.098 3.753-51.63 17.225l-4.105 3.154-6.847-6.847-6.847-6.847 4.389-3.417c17.746-13.817 34.246-20.947 53.018-22.909 7.107-.743 17.811-.66 24.28.188zm-.674 78.03c-10.743 9.27-19.657 17.177-19.808 17.572-.482 1.255 3.128 69.05 3.728 70.02.196.318 1.647.577 3.225.577 2.486 0 2.93-.157 3.335-1.181.412-1.044 1-10.73 3.263-53.693.32-6.066.728-11.294.908-11.62.18-.326 6.708-7.655 14.506-16.286s14.502-16.103 14.898-16.603c.63-.798.5-1.201-1.05-3.26-.974-1.29-2.153-2.355-2.621-2.364-.469-.009-9.641 7.568-20.384 16.838zm21.966-13.599l1.24 1.418L1721 933.556c-7.763 8.564-14.519 16.099-15.014 16.744-.98 1.276-1.028 1.91-3.03 39.416-.571 10.686-1.18 21.142-1.355 23.236l-.318 3.807H1696.78l-.33-4.595c-.181-2.527-.694-11.802-1.14-20.61a9614.348 9614.348 0 00-1.552-29.657l-.742-13.64 1.683-1.411c.926-.776 9.717-8.37 19.537-16.875 9.82-8.505 17.976-15.32 18.124-15.143.15.176.829.959 1.511 1.738z" stroke="#fff" stroke-width="12" transform="matrix(.16044 0 0 .15829 -202.245 -84.216)"/><path d="M1685.512 1047.886c-19.05-3.678-39.057-14.266-52.66-27.87-14.474-14.472-21.806-29.511-26.8-54.966l-2.993-15.255-6.311-.847-6.31-.847 9.4-9.265 9.402-9.264 9.401 9.264 9.401 9.265-8.13.847c-7.978.832-8.139.965-8.651 7.136-2.608 31.418 24.517 69.203 58.239 81.127 12.652 4.473 35.63 6.054 48.66 3.347 31.787-6.603 59.843-33.533 68.146-65.41 9.235-35.453-6.409-76.003-37.207-96.446-28.697-19.048-71.633-18.637-99.414.951-3.646 2.571-4.812 2.741-6.321.922-1.445-1.74.468-3.608 8.707-8.5 15.59-9.254 29.698-13.114 47.847-13.09 37.11.047 68.636 19.951 84.778 53.522 9.804 20.391 11.735 30.64 9.394 49.886-4.828 39.71-28.386 68.881-65.675 81.325-10.278 3.43-34.525 5.785-42.904 4.168z" stroke="#fff" stroke-width="20.339" stroke-linecap="round" transform="matrix(.16044 0 0 .15829 -202.245 -84.216)"/></g></svg>