<svg version="1.0" xmlns="http://www.w3.org/2000/svg" width="731.000000pt" height="728.000000pt" viewBox="0 0 731.000000 728.000000" preserveAspectRatio="xMidYMid meet"> <g transform="translate(0.000000,728.000000) scale(0.100000,-0.100000)" fill="#0033AB" stroke="none"> <path d="M48 7273 c-17 -4 -18 -113 -18 -2098 0 -2060 0 -2094 19 -2105 27 -14 2745 -14 2772 0 19 11 19 45 19 2104 l0 2094 -22 6 c-26 7 -2744 6 -2770 -1z"/> <path d="M4493 7270 l-23 -9 0 -2085 0 -2085 22 -15 c20 -14 169 -16 1391 -16 924 0 1375 3 1388 10 19 11 19 45 19 2101 l0 2089 -26 10 c-33 13 -2740 12 -2771 0z"/> <path d="M3510 4290 c-65 -18 -135 -48 -219 -95 -51 -28 -167 -161 -198 -225 -62 -130 -73 -179 -73 -313 1 -100 4 -129 20 -162 11 -22 19 -48 20 -57 0 -23 40 -97 85 -158 70 -96 162 -163 307 -224 21 -8 76 -20 123 -26 187 -23 378 34 506 152 57 52 139 154 139 172 0 8 6 19 14 25 8 7 18 27 21 44 4 18 15 58 26 90 29 88 26 225 -7 336 -15 47 -33 93 -40 102 -8 8 -14 19 -14 23 0 15 -65 101 -110 146 -158 157 -397 225 -600 170z"/> <path d="M48 2823 c-17 -4 -18 -79 -18 -1397 l0 -1393 25 -11 c33 -15 2720 -17 2759 -2 l26 10 0 1394 0 1394 -22 6 c-30 8 -1216 8 -1245 0 l-23 -6 0 -1033 c0 -1194 14 -1065 -118 -1065 -72 0 -83 2 -96 22 -14 20 -16 136 -16 1049 l0 1027 -22 6 c-26 7 -1224 6 -1250 -1z"/> <path d="M3088 2819 c-17 -9 -18 -86 -18 -1394 l0 -1385 24 -15 c20 -14 91 -15 575 -13 534 3 553 4 567 22 12 17 14 223 14 1392 0 1234 -2 1374 -16 1388 -14 14 -79 16 -572 16 -360 -1 -563 -4 -574 -11z"/> <path d="M4500 2823 c-8 -3 -18 -11 -22 -17 -4 -6 -8 -422 -8 -924 l0 -912 26 -10 c16 -6 325 -10 813 -10 599 0 790 -3 799 -12 18 -18 16 -168 -4 -196 l-15 -22 -790 0 c-776 0 -789 0 -809 -20 -19 -19 -20 -33 -20 -333 0 -255 3 -317 14 -333 14 -19 41 -19 1387 -22 1219 -2 1375 -1 1396 13 l23 15 0 908 c0 693 -3 911 -12 920 -9 9 -200 12 -799 12 -734 0 -788 1 -808 18 -20 16 -22 25 -19 112 3 89 4 95 28 107 19 10 197 13 806 13 593 0 783 3 792 12 9 9 12 99 12 344 l0 332 -22 6 c-29 7 -2748 6 -2768 -1z"/> </g> </svg>